<svg xmlns="http://www.w3.org/2000/svg" width="1200" height="520" viewBox="0 0 1200 520" role="img" aria-labelledby="title desc">
<title id="title">RANDEVOUGH</title><desc id="desc">I build things people actually use. Full-stack developer, UI/UX enthusiast, and team player.</desc>
<defs>
  <filter id="paper" x="0" y="0" width="100%" height="100%"><feTurbulence type="fractalNoise" baseFrequency=".72" numOctaves="3" seed="31" stitchTiles="stitch"/><feColorMatrix values="1 0 0 0 0 0 1 0 0 0 0 0 1 0 0 0 0 0 .085 0"/></filter>
  <filter id="rough"><feTurbulence type="fractalNoise" baseFrequency=".018" numOctaves="2" seed="11" result="noise"/><feDisplacementMap in="SourceGraphic" in2="noise" scale="1.4"/></filter>
  <style>.sans{font-family:Arial,Helvetica,sans-serif}.mono{font-family:Consolas,Menlo,monospace}</style>
</defs>
<rect width="1200" height="520" rx="22" fill="#f3ebdd"/>
<rect width="1200" height="520" rx="22" filter="url(#paper)"/>

<!-- editorial paper pieces: all intentionally contained inside the canvas -->
<path d="M38 38H192L181 482H38Z" fill="#1736b6"/>
<path d="M992 36H1162V155L978 166Z" fill="#f06432"/>
<path d="M918 420L1162 390V482H893Z" fill="#ffd253"/>
<path d="M222 68L492 48L502 98L230 112Z" fill="#ffd253" opacity=".9"/>

<text class="mono" x="76" y="78" font-size="12" fill="#f3ebdd" letter-spacing="2" transform="rotate(-90 76 78)">01 / DEVELOPER PROFILE</text>
<text class="mono" x="226" y="86" font-size="13" fill="#171717" letter-spacing="2">HELLO, I'M</text>

<!-- magazine headline -->
<g class="sans" font-weight="900" fill="#1736b6" letter-spacing="-8">
  <text x="218" y="225" font-size="112" transform="rotate(-.7 218 225)">RANDE</text>
  <text x="500" y="319" font-size="112" transform="rotate(.5 500 319)">VOUGH</text>
</g>
<path d="M225 328C389 340 508 323 664 335C786 344 870 346 974 332" fill="none" stroke="#171717" stroke-width="5" stroke-linecap="round" filter="url(#rough)"/>
<path d="M965 323l21 9-18 14" fill="none" stroke="#171717" stroke-width="5" stroke-linecap="round" stroke-linejoin="round"/>

<!-- attached note with offset print shadow -->
<g transform="translate(226 348) rotate(-.7)">
  <path d="M12 12H720L708 112H0Z" fill="#1736b6" opacity=".22"/>
  <path d="M0 0H714L706 102H8Z" fill="#fffaf0" stroke="#171717" stroke-width="2"/>
  <text class="sans" x="30" y="43" font-size="26" font-weight="800" fill="#171717">I build things people actually use.</text>
  <text class="sans" x="30" y="76" font-size="16" fill="#41403c">Full-stack developer · UI/UX enthusiast · Team player</text>
</g>

<!-- small, static human marks -->
<g fill="none" stroke="#171717" stroke-width="3" stroke-linecap="round">
  <path d="M1040 221l20-19m0 34 29-7m-40 28 25 17"/>
  <path d="M1016 343c31-13 58-11 85 6m-75 9c23-7 45-4 65 7"/>
</g>
<g transform="translate(976 91) rotate(2)">
  <rect width="147" height="42" fill="#fffaf0" stroke="#171717" stroke-width="2"/>
  <text class="mono" x="74" y="26" text-anchor="middle" font-size="11" fill="#171717">JAKARTA, ID ↗</text>
</g>
<text class="mono" x="222" y="489" font-size="11" fill="#171717">OPEN TO WORK · COLLABORATION · FREELANCE</text>
<text class="mono" x="1120" y="489" text-anchor="end" font-size="11" fill="#171717">powered by questionable amounts of caffeine.</text>
</svg>
